HIERARCHY
ROOT Hips
{
	OFFSET 0.000000 0.000000 0.000000
	CHANNELS 6 Xposition Yposition Zposition Zrotation Yrotation Xrotation 
	JOINT LHipJoint
	{
		OFFSET 0.000000 0.000000 0.000000
		CHANNELS 3 Zrotation Yrotation Xrotation
		JOINT LeftUpLeg
		{
			OFFSET 1.363060 -1.794630 0.839290
			CHANNELS 3 Zrotation Yrotation Xrotation
			JOINT LeftLeg
			{
				OFFSET 2.448110 -6.726130 0.000000
				CHANNELS 3 Zrotation Yrotation Xrotation
				JOINT LeftFoot
				{
					OFFSET 2.562200 -7.039590 0.000000
					CHANNELS 3 Zrotation Yrotation Xrotation
					JOINT LeftToeBase
					{
						OFFSET 0.157640 -0.433110 2.322550
						CHANNELS 3 Zrotation Yrotation Xrotation
						End Site
						{
							OFFSET 0.000000 0.000000 0.000000
						}
					}
				}
			}
		}
	}
	JOINT RHipJoint
	{
		OFFSET 0.000000 0.000000 0.000000
		CHANNELS 3 Zrotation Yrotation Xrotation
		JOINT RightUpLeg
		{
			OFFSET -1.305520 -1.794630 0.839290
			CHANNELS 3 Zrotation Yrotation Xrotation
			JOINT RightLeg
			{
				OFFSET -2.542530 -6.985550 0.000000
				CHANNELS 3 Zrotation Yrotation Xrotation
				JOINT RightFoot
				{
					OFFSET -2.568260 -7.056230 0.000000
					CHANNELS 3 Zrotation Yrotation Xrotation
					JOINT RightToeBase
					{
						OFFSET -0.164730 -0.452590 2.363150
						CHANNELS 3 Zrotation Yrotation Xrotation
						End Site
						{
							OFFSET 0.000000 0.000000 0.000000
						}
					}
				}
			}
		}
	}
	JOINT LowerBack
	{
		OFFSET 0.000000 0.000000 0.000000
		CHANNELS 3 Zrotation Yrotation Xrotation
		JOINT Spine
		{
			OFFSET 0.028270 2.035590 -0.193380
			CHANNELS 3 Zrotation Yrotation Xrotation
			JOINT Spine1
			{
				OFFSET 0.056720 2.048850 -0.042750
				CHANNELS 3 Zrotation Yrotation Xrotation
				JOINT Neck
				{
					OFFSET 0.000000 0.000000 0.000000
					CHANNELS 3 Zrotation Yrotation Xrotation
					JOINT Neck1
					{
						OFFSET -0.054170 1.746240 0.172020
						CHANNELS 3 Zrotation Yrotation Xrotation
						JOINT Head
						{
							OFFSET 0.104070 1.761360 -0.123970
							CHANNELS 3 Zrotation Yrotation Xrotation
							End Site
							{
								OFFSET 0.000000 0.000000 0.000000
							}
						}
					}
				}
				JOINT LeftShoulder
				{
					OFFSET 0.000000 0.000000 0.000000
					CHANNELS 3 Zrotation Yrotation Xrotation
					JOINT LeftArm
					{
						OFFSET 3.362410 1.200890 -0.311210
						CHANNELS 3 Zrotation Yrotation Xrotation
						JOINT LeftForeArm
						{
							OFFSET 4.983000 -0.000000 -0.000000
							CHANNELS 3 Zrotation Yrotation Xrotation
							JOINT LeftHand
							{
								OFFSET 3.483560 -0.000000 -0.000000
								CHANNELS 3 Zrotation Yrotation Xrotation
								JOINT LeftFingerBase
								{
									OFFSET 0.000000 0.000000 0.000000
									CHANNELS 3 Zrotation Yrotation Xrotation
									JOINT LeftHandIndex1
									{
										OFFSET 0.715260 -0.000000 -0.000000
										CHANNELS 3 Zrotation Yrotation Xrotation
										End Site
										{
											OFFSET 0.000000 0.000000 0.000000
										}
									}
								}
								JOINT LThumb
								{
									OFFSET 0.000000 0.000000 0.000000
									CHANNELS 3 Zrotation Yrotation Xrotation
									End Site
									{
										OFFSET 0.000000 0.000000 0.000000
									}
								}
							}
						}
					}
				}
				JOINT RightShoulder
				{
					OFFSET 0.000000 0.000000 0.000000
					CHANNELS 3 Zrotation Yrotation Xrotation
					JOINT RightArm
					{
						OFFSET -3.136600 1.374050 -0.404650
						CHANNELS 3 Zrotation Yrotation Xrotation
						JOINT RightForeArm
						{
							OFFSET -5.241900 -0.000000 -0.000000
							CHANNELS 3 Zrotation Yrotation Xrotation
							JOINT RightHand
							{
								OFFSET -3.444170 -0.000000 -0.000000
								CHANNELS 3 Zrotation Yrotation Xrotation
								JOINT RightFingerBase
								{
									OFFSET 0.000000 0.000000 0.000000
									CHANNELS 3 Zrotation Yrotation Xrotation
									JOINT RightHandIndex1
									{
										OFFSET -0.622530 -0.000000 -0.000000
										CHANNELS 3 Zrotation Yrotation Xrotation
										End Site
										{
											OFFSET 0.000000 0.000000 0.000000
										}
									}
								}
								JOINT RThumb
								{
									OFFSET 0.000000 0.000000 0.000000
									CHANNELS 3 Zrotation Yrotation Xrotation
									End Site
									{
										OFFSET 0.000000 0.000000 0.000000
									}
								}
							}
						}
					}
				}
			}
		}
	}
}
MOTION
Frames: 8
Frame Time: 0.008333
5.048949 17.944786 -21.391988 -0.901700 2.862912 12.208957 -2.972764 -0.714221 -0.512686 -14.829069 -3.343983 -23.358770 1.776225 9.287499 26.516257 4.067454 -12.940804 -34.075894 7.245900 15.535500 49.798200 0.358597 -0.074154 -0.828869 21.484105 9.626034 -17.904635 -2.939121 -9.527693 28.255304 -2.312543 -6.469594 -31.292665 -0.858800 -5.909600 16.522400 3.545138 2.093019 -5.614383 -0.665383 2.199604 -4.830571 -1.300129 0.942812 4.671006 -2.432238 -3.498402 -15.081986 4.862254 -4.707086 6.588390 0.260000 -2.157900 2.992700 10.631097 -3.291226 2.306008 -93.373624 7.812024 42.717812 31.104404 -41.807337 -8.845372 -1.444743 2.483447 -6.489400 0.508401 21.257644 0.540400 -7.125000 0.000000 0.000000 -24.973100 46.948400 -1.278300 -8.415095 3.007009 1.196251 96.878696 -7.232600 26.080030 -24.098930 35.099024 -6.989100 0.213271 -1.082845 12.450218 -26.406241 -19.684772 9.118000 7.125000 0.000000 0.000000 1.276600 -50.506400 -0.173300 
5.048529 17.941112 -21.390833 -0.862431 2.854435 12.238723 -2.976179 -0.719871 -0.523875 -14.862811 -3.371582 -23.408436 1.788580 9.312780 26.596551 4.004983 -12.852484 -33.782389 7.197300 15.495800 49.616800 0.347625 -0.074735 -0.836350 21.472537 9.506702 -18.019547 -2.928125 -9.509624 28.194457 -2.253658 -6.635835 -31.000783 -0.738400 -5.489500 15.310300 3.245167 2.051788 -6.078415 -0.449177 2.135885 -4.585615 -0.741137 0.907504 5.257369 -2.881846 -3.492475 -15.148070 4.832548 -4.626275 6.334379 0.347000 -2.131800 2.929900 10.658799 -3.268106 2.308020 -93.945092 7.340771 42.522949 30.989240 -41.804043 -8.801700 -1.443211 2.498284 -6.375752 0.534052 21.285229 0.549700 -7.125000 0.000000 0.000000 -24.955400 46.965700 -1.288600 -8.425792 2.952737 1.183195 96.286022 -6.841288 26.322140 -24.130195 35.105471 -7.001084 0.214556 -1.078955 12.215820 -26.395608 -19.751371 9.145000 7.125000 0.000000 0.000000 1.304900 -50.579800 -0.179500 
5.048214 17.940902 -21.388734 -0.888732 2.858562 12.226800 -2.976085 -0.716655 -0.517436 -14.821907 -3.429821 -23.385620 1.790211 9.315761 26.614146 3.951848 -12.713243 -33.532327 7.174200 15.476900 49.530200 0.347665 -0.078177 -0.829174 21.505144 9.550403 -17.972974 -2.925870 -9.503718 28.179000 -2.226520 -6.732473 -30.875191 -0.700600 -5.350200 14.910100 3.496019 1.908018 -5.689400 -0.485322 1.948581 -4.760884 -0.992375 0.820190 4.794758 -3.021677 -3.371355 -15.243112 4.988131 -4.461224 6.599460 0.433600 -2.036300 3.044700 10.643623 -3.296839 2.318804 -93.986036 7.748644 42.049913 31.066395 -41.845023 -8.837343 -1.442079 2.493496 -6.342384 0.535801 21.206363 0.548500 -7.125000 0.000000 0.000000 -24.919500 46.899700 -1.243500 -8.417041 2.985771 1.185361 96.293347 -7.128184 26.782016 -24.196698 35.160021 -7.029634 0.219095 -1.082277 12.229591 -26.312863 -19.754042 9.115100 7.125000 0.000000 0.000000 1.382400 -50.566900 -0.189700 
5.047060 17.941637 -21.386320 -0.881306 2.863646 12.222335 -2.974822 -0.715942 -0.515030 -14.834401 -3.396457 -23.390399 1.792466 9.321914 26.636545 3.887999 -12.614491 -33.225993 7.146400 15.454000 49.425900 0.345652 -0.078187 -0.830107 21.512874 9.539453 -17.952056 -2.922369 -9.497371 28.158634 -2.193083 -6.827648 -30.708736 -0.650900 -5.160600 14.367100 3.479741 1.891950 -5.667270 -0.475740 1.930287 -4.769198 -0.968064 0.810424 4.768744 -3.009543 -3.371032 -15.255798 4.950968 -4.456409 6.642013 0.420900 -2.033800 3.060100 10.643881 -3.296594 2.319414 -94.033994 7.770746 42.002966 31.053520 -41.832560 -8.823724 -1.443757 2.486896 -6.302226 0.453617 21.085053 0.520400 -7.125000 0.000000 0.000000 -24.936500 46.786700 -1.170700 -8.416170 2.991305 1.186450 96.268278 -7.163017 26.823376 -24.227748 35.189843 -7.044744 0.220531 -1.082570 12.239987 -26.295406 -19.764329 9.113700 7.125000 0.000000 0.000000 1.400400 -50.575300 -0.192400 
5.047584 17.948249 -21.383906 -0.888867 2.843874 12.229168 -2.979185 -0.712954 -0.522480 -14.767007 -3.735467 -23.286135 1.789679 9.316484 26.637132 3.831818 -12.214693 -32.993266 7.113300 15.426500 49.301400 0.344937 -0.080062 -0.828680 21.509969 9.548095 -18.001070 -2.921338 -9.494516 28.149933 -2.146104 -6.877395 -30.430547 -0.596900 -4.946000 13.754500 3.480162 1.918432 -5.710156 -0.473913 1.962609 -4.754782 -0.961852 0.825260 4.813579 -2.965040 -3.390106 -15.245400 4.917418 -4.484059 6.651859 0.399900 -2.048200 3.059700 10.647388 -3.288559 2.320040 -94.045313 7.734879 42.026875 31.024902 -41.813744 -8.813330 -1.441847 2.492636 -6.309101 0.513029 21.151999 0.540200 -7.125000 0.000000 0.000000 -24.914200 46.849200 -1.210300 -8.424571 2.983831 1.180588 96.307817 -6.958598 26.640267 -24.046908 35.007423 -6.953170 0.215589 -1.084689 12.112935 -26.131683 -19.761044 9.045400 7.125000 0.000000 0.000000 1.569900 -50.540900 -0.214400 
5.047584 17.951923 -21.381387 -0.892909 2.832842 12.230270 -2.980257 -0.712206 -0.525631 -14.734913 -3.867033 -23.262121 1.788819 9.316190 26.645204 3.769502 -11.988668 -32.706738 7.071800 15.392000 49.145200 0.342979 -0.081227 -0.827835 21.517841 9.532973 -18.015376 -2.918418 -9.488219 28.130580 -2.110448 -6.935676 -30.226632 -0.547600 -4.740700 13.170600 3.493045 1.901622 -5.700894 -0.458510 1.939571 -4.758204 -0.948368 0.813573 4.802360 -2.997425 -3.380320 -15.264853 4.911601 -4.464360 6.694244 0.406200 -2.037600 3.078400 10.649372 -3.286764 2.322372 -94.115095 7.750050 41.937348 31.008659 -41.805314 -8.804706 -1.440849 2.493095 -6.286179 0.517749 21.121006 0.540700 -7.125000 0.000000 0.000000 -24.895900 46.821700 -1.191400 -8.429098 2.982332 1.177057 96.279052 -6.867189 26.648877 -23.942928 34.896455 -6.899840 0.212373 -1.084712 12.108351 -26.091747 -19.727525 9.013500 7.125000 0.000000 0.000000 1.606300 -50.497600 -0.217700 
5.047899 17.956436 -21.379078 -0.900542 2.808294 12.236866 -2.980943 -0.711883 -0.530104 -14.697346 -4.015917 -23.246100 1.788505 9.316593 26.656341 3.708332 -11.735721 -32.428329 7.024700 15.352600 48.967600 0.341270 -0.082460 -0.826288 21.524586 9.511217 -18.032798 -2.914181 -9.478761 28.101603 -2.078565 -6.955451 -30.026732 -0.504600 -4.553600 12.639600 3.519764 1.896493 -5.683572 -0.454249 1.931568 -4.771103 -0.960369 0.809483 4.774492 -3.002720 -3.373295 -15.273709 4.903140 -4.452310 6.741353 0.405900 -2.030500 3.095800 10.650498 -3.285317 2.324389 -94.155223 7.778673 41.869833 30.994481 -41.794378 -8.796693 -1.439718 2.493117 -6.270563 0.525391 21.091240 0.542200 -7.125000 0.000000 0.000000 -24.876200 46.796100 -1.173600 -8.433893 2.982426 1.173901 96.282480 -6.780325 26.627703 -23.819492 34.766428 -6.837489 0.208148 -1.084397 12.140987 -26.073019 -19.676999 8.981800 7.125000 0.000000 0.000000 1.618500 -50.439300 -0.217000 
5.048424 17.960949 -21.376874 -0.907381 2.776027 12.247611 -2.981053 -0.712278 -0.536366 -14.660629 -4.169362 -23.244762 1.791874 9.323606 26.688266 3.649818 -11.480126 -32.163422 6.975600 15.311300 48.782100 0.339076 -0.083621 -0.824773 21.529471 9.479046 -18.047405 -2.906781 -9.462766 28.051563 -2.048242 -6.953316 -29.823255 -0.464300 -4.370500 12.121500 3.535317 1.901270 -5.690434 -0.448445 1.935749 -4.775919 -0.960066 0.811338 4.771828 -3.004272 -3.370784 -15.274585 4.888196 -4.446600 6.774230 0.402300 -2.027300 3.106700 10.652308 -3.282663 2.325902 -94.194513 7.787265 41.824658 30.975734 -41.780885 -8.786465 -1.438623 2.493438 -6.258236 0.533974 21.065849 0.544000 -7.125000 0.000000 0.000000 -24.857600 46.774100 -1.158300 -8.438796 2.980886 1.170742 96.283935 -6.683793 26.582373 -23.704141 34.645109 -6.779470 0.204344 -1.084368 12.146592 -26.036991 -19.640455 8.949800 7.125000 0.000000 0.000000 1.650800 -50.393200 -0.219500 
